<svg width="20" height="20" viewBox="0 0 20 20" fill="none" xmlns="http://www.w3.org/2000/svg">
<path d="M9.99967 8.33333C11.6105 8.33333 12.9163 7.0275 12.9163 5.41667C12.9163 3.80584 11.6105 2.5 9.99967 2.5C8.38884 2.5 7.08301 3.80584 7.08301 5.41667C7.08301 7.0275 8.38884 8.33333 9.99967 8.33333Z" stroke="white" stroke-linecap="round" stroke-linejoin="round"/>
<path d="M5 3.02295C4.24438 3.55001 3.75 4.42567 3.75 5.41683C3.75 6.47779 4.3165 7.40646 5.1635 7.91683" stroke="white" stroke-linecap="round" stroke-linejoin="round"/>
<path d="M15 3.02295C15.7556 3.55001 16.25 4.42567 16.25 5.41683C16.25 6.40796 15.7556 7.28367 15 7.81071" stroke="white" stroke-linecap="round" stroke-linejoin="round"/>
<path d="M5 17.4998V16.6665C5 15.1134 5 14.3368 5.25375 13.7242C5.59204 12.9075 6.24096 12.2585 7.05771 11.9203C7.67029 11.6665 8.44687 11.6665 10 11.6665C11.5531 11.6665 12.3297 11.6665 12.9423 11.9203C13.759 12.2585 14.408 12.9075 14.7462 13.7242C15 14.3368 15 15.1134 15 16.6665V17.4998" stroke="white" stroke-linecap="round" stroke-linejoin="round"/>
<path d="M18.3337 17.5003V17.0003C18.3337 15.1334 18.3337 14.2 17.9704 13.487C17.6508 12.8598 17.1409 12.3499 16.5137 12.0303" stroke="white" stroke-linecap="round" stroke-linejoin="round"/>
<path d="M1.66699 17.5003V17.0003C1.66699 15.1334 1.66699 14.2 2.0303 13.487C2.34988 12.8598 2.85982 12.3499 3.48702 12.0303" stroke="white" stroke-linecap="round" stroke-linejoin="round"/>
</svg>
