<svg width="24" height="24" viewBox="0 0 24 24" fill="none" xmlns="http://www.w3.org/2000/svg">
<path fill-rule="evenodd" clip-rule="evenodd" d="M6.01932 4.23877C3.48885 4.23877 1.4375 6.29012 1.4375 8.82059V15.179C1.4375 17.7095 3.48885 19.7608 6.01932 19.7608H17.9882C20.4112 19.7608 22.395 17.8799 22.559 15.4985H18.1398C16.2052 15.4985 14.6216 13.9492 14.6216 12.0193C14.6216 10.0893 16.2052 8.54003 18.1398 8.54003H22.5615C22.4166 6.14022 20.4244 4.23877 17.9882 4.23877H6.01932ZM15.9307 12.0193C15.9307 10.8292 16.9112 9.84912 18.1398 9.84912H22.2579V14.1894H18.1398C16.9112 14.1894 15.9307 13.2093 15.9307 12.0193ZM18.5493 11.9122C18.5493 12.0235 18.5282 12.1337 18.4871 12.2365C18.446 12.3393 18.3857 12.4328 18.3097 12.5115C18.2337 12.5902 18.1435 12.6526 18.0443 12.6952C17.945 12.7378 17.8386 12.7597 17.7311 12.7597C17.6237 12.7597 17.5173 12.7378 17.418 12.6952C17.3187 12.6526 17.2285 12.5902 17.1525 12.5115C17.0766 12.4328 17.0163 12.3393 16.9752 12.2365C16.9341 12.1337 16.9129 12.0235 16.9129 11.9122C16.913 11.6875 16.9992 11.472 17.1526 11.3131C17.3061 11.1542 17.5142 11.0649 17.7311 11.0649C17.9481 11.0649 18.1562 11.1542 18.3096 11.3131C18.463 11.472 18.5493 11.6875 18.5493 11.9122ZM3.58764 6.6699C3.22615 6.6699 2.9331 6.96295 2.9331 7.32445C2.9331 7.68594 3.22615 7.97899 3.58764 7.97899H9.19803C9.55953 7.97899 9.85258 7.68594 9.85258 7.32445C9.85258 6.96295 9.55953 6.6699 9.19803 6.6699L3.58764 6.6699Z" fill="white"/>
</svg>
