<svg width="16" height="17" viewBox="0 0 16 17" fill="none" xmlns="http://www.w3.org/2000/svg">
<g clip-path="url(#clip0_1080_592)">
<mask id="mask0_1080_592" style="mask-type:luminance" maskUnits="userSpaceOnUse" x="0" y="0" width="16" height="17">
<path d="M16 0.5H0V16.5H16V0.5Z" fill="white"/>
</mask>
<g mask="url(#mask0_1080_592)">
<path d="M8 0.5C3.584 0.5 0 4.084 0 8.5C0 12.916 3.584 16.5 8 16.5C12.416 16.5 16 12.916 16 8.5C16 4.084 12.416 0.5 8 0.5Z" fill="#6C2CFD"/>
<path fill-rule="evenodd" clip-rule="evenodd" d="M3.89251 8.03185H3.33219C3.24409 8.03185 3.15959 8.0658 3.0973 8.1263C3.035 8.1868 3 8.26885 3 8.35435C3 8.4399 3.035 8.52195 3.0973 8.58245C3.15959 8.6429 3.24409 8.6769 3.33219 8.6769H3.89251C3.98061 8.6769 4.06511 8.6429 4.12741 8.58245C4.1897 8.52195 4.2247 8.4399 4.2247 8.35435C4.2247 8.26885 4.1897 8.1868 4.12741 8.1263C4.06511 8.0658 3.98061 8.03185 3.89251 8.03185ZM12.6678 8.03185H12.059C11.9709 8.03185 11.8865 8.0658 11.8242 8.1263C11.7619 8.1868 11.7269 8.26885 11.7269 8.35435C11.7269 8.4399 11.7619 8.52195 11.8242 8.58245C11.8865 8.6429 11.9709 8.6769 12.059 8.6769H12.6678C12.7559 8.6769 12.8404 8.6429 12.9027 8.58245C12.965 8.52195 13 8.4399 13 8.35435C13 8.26885 12.965 8.1868 12.9027 8.1263C12.8404 8.0658 12.7559 8.03185 12.6678 8.03185ZM8.00025 4.67759C8.08835 4.67759 8.17285 4.64361 8.23515 4.58313C8.29745 4.52264 8.33245 4.44061 8.33245 4.35507V3.82253C8.33245 3.73699 8.29745 3.65495 8.23515 3.59447C8.17285 3.53398 8.08835 3.5 8.00025 3.5C7.91215 3.5 7.82765 3.53398 7.76535 3.59447C7.70305 3.65495 7.66805 3.73699 7.66805 3.82253V4.35507C7.66805 4.44061 7.70305 4.52264 7.76535 4.58313C7.82765 4.64361 7.91215 4.67759 8.00025 4.67759ZM4.8834 10.9241L4.46469 11.3311C4.43284 11.3608 4.40741 11.3964 4.38988 11.4357C4.37236 11.4751 4.36309 11.5174 4.36262 11.5603C4.36214 11.6031 4.37048 11.6457 4.38714 11.6854C4.4038 11.7251 4.42844 11.7612 4.45963 11.7915C4.49082 11.8219 4.52794 11.8459 4.5688 11.8622C4.60966 11.8784 4.65344 11.8866 4.6976 11.8862C4.74175 11.8858 4.78539 11.877 4.82596 11.8601C4.86653 11.8431 4.90322 11.8185 4.93388 11.7877L5.3526 11.3811C5.38445 11.3514 5.4099 11.3159 5.4275 11.2766C5.44505 11.2373 5.4544 11.1949 5.4549 11.152C5.4554 11.1092 5.4471 11.0666 5.4305 11.0269C5.4139 10.9872 5.3893 10.9511 5.35815 10.9207C5.327 10.8903 5.2899 10.8663 5.24905 10.8499C5.20825 10.8336 5.16445 10.8254 5.1203 10.8258C5.07615 10.8261 5.0325 10.8349 4.99191 10.8518C4.95132 10.8686 4.91409 10.8933 4.8834 10.9241ZM9.09375 12.2337C9.29425 12.2337 9.4401 12.3856 9.4401 12.5801C9.4401 12.7745 9.2882 12.9264 9.09375 12.9264H6.90625C6.70575 12.9264 6.5599 12.7745 6.5599 12.5801C6.5599 12.3856 6.7118 12.2337 6.90625 12.2337H9.09375ZM8 5.17904C9.68925 5.17904 11.0808 6.57055 11.0808 8.25975C11.0808 9.3778 10.4852 10.3987 9.513 10.9455V11.541C9.513 11.7416 9.3611 11.8874 9.16665 11.8874H6.83335C6.6328 11.8874 6.487 11.7355 6.487 11.541V10.9212C5.52085 10.3743 4.91927 9.3535 4.91927 8.23545C4.91927 6.57055 6.31075 5.17904 8 5.17904ZM7.9028 6.5462C7.03385 6.5462 6.33505 7.23895 6.33505 8.11395C6.33505 8.31445 6.487 8.4603 6.6814 8.4603C6.87585 8.4603 7.0278 8.3084 7.0278 8.11395C7.0278 7.61565 7.42275 7.245 7.8967 7.245C8.0972 7.245 8.24305 7.0931 8.24305 6.89865C8.24305 6.7042 8.0729 6.5462 7.9028 6.5462ZM10.8453 5.11342L11.2814 4.70795C11.3486 4.64811 11.4385 4.61515 11.5316 4.61617C11.6248 4.61718 11.7138 4.65208 11.7795 4.71338C11.8453 4.77467 11.8824 4.85745 11.8831 4.94393C11.8838 5.03042 11.8479 5.11371 11.7831 5.17589L11.347 5.58085C11.3144 5.6134 11.2752 5.6395 11.2315 5.6576C11.1877 5.6757 11.1405 5.68545 11.0927 5.6862C11.0449 5.687 10.9974 5.6788 10.953 5.6621C10.9087 5.64545 10.8684 5.62065 10.8347 5.58915C10.8008 5.5577 10.7742 5.5202 10.7564 5.47899C10.7386 5.43776 10.73 5.39361 10.731 5.34919C10.732 5.30478 10.7426 5.261 10.7622 5.22049C10.7818 5.17998 10.8101 5.14356 10.8453 5.11342ZM4.87581 5.65325C4.78135 5.6532 4.69078 5.6183 4.62402 5.55625L4.21546 5.17537C4.14869 5.11346 4.11117 5.02945 4.11111 4.94184C4.11106 4.85423 4.1485 4.7702 4.21518 4.70821C4.28186 4.64622 4.37233 4.61137 4.46669 4.61133C4.56105 4.61128 4.65156 4.64603 4.71832 4.70795L5.128 5.08885C5.16105 5.11958 5.18725 5.15605 5.20515 5.19618C5.223 5.23631 5.2322 5.27931 5.23215 5.32274C5.23215 5.36617 5.2229 5.40917 5.205 5.44928C5.18705 5.48939 5.1608 5.52585 5.1277 5.55655C5.0946 5.5872 5.05535 5.61155 5.01215 5.62815C4.9689 5.64475 4.92258 5.6533 4.87581 5.65325ZM11.1952 10.7579C11.2383 10.7745 11.2776 10.7988 11.3106 10.8294H11.3112L11.7849 11.2697C11.8179 11.3004 11.8441 11.3369 11.8619 11.377C11.8798 11.4171 11.8889 11.46 11.8889 11.5034C11.8889 11.5468 11.8797 11.5898 11.8617 11.6298C11.8438 11.6698 11.8176 11.7063 11.7845 11.7369C11.7515 11.7676 11.7122 11.7919 11.6691 11.8084C11.6259 11.825 11.5796 11.8336 11.5329 11.8336C11.4862 11.8336 11.4399 11.8249 11.3968 11.8083C11.3537 11.7917 11.3144 11.7674 11.2814 11.7367L10.8078 11.2969C10.7747 11.2662 10.7485 11.2298 10.7306 11.1897C10.7127 11.1497 10.7035 11.1067 10.7035 11.0633C10.7034 11.02 10.7126 10.977 10.7304 10.9369C10.7483 10.8968 10.7745 10.8604 10.8075 10.8298C10.8405 10.799 10.8797 10.7747 10.9229 10.758C10.9661 10.7414 11.0123 10.7329 11.059 10.7329C11.1058 10.7328 11.152 10.7413 11.1952 10.7579Z" fill="white"/>
</g>
</g>
<defs>
<clipPath id="clip0_1080_592">
<rect width="16" height="16" fill="white" transform="translate(0 0.5)"/>
</clipPath>
</defs>
</svg>
