<svg width="24" height="24" viewBox="0 0 24 24" fill="none" xmlns="http://www.w3.org/2000/svg">
<path d="M12.1362 2.99951C6.28842 2.99951 1.54785 7.74009 1.54785 13.5879C1.54785 16.3568 2.45498 19.113 4.19495 20.9998H20.0775C21.8175 19.113 22.7246 16.3568 22.7246 13.5879C22.7246 7.74009 17.984 2.99951 12.1362 2.99951Z" stroke="#ABB7C2" stroke-width="1.0809" stroke-linecap="round" stroke-linejoin="round"/>
<path d="M12.1362 17.2939C13.3058 17.2939 14.2539 16.3458 14.2539 15.1763C14.2539 14.0067 13.3058 13.0586 12.1362 13.0586C10.9667 13.0586 10.0186 14.0067 10.0186 15.1763C10.0186 16.3458 10.9667 17.2939 12.1362 17.2939Z" stroke="#ABB7C2" stroke-width="1.0809" stroke-linecap="round" stroke-linejoin="round"/>
<path d="M12.1357 9.88232V13.0588" stroke="#ABB7C2" stroke-width="1.0809" stroke-linecap="round" stroke-linejoin="round"/>
<path d="M12.1357 5.64697V6.70581" stroke="#ABB7C2" stroke-width="1.0809" stroke-linecap="round" stroke-linejoin="round"/>
<path d="M4.19434 14.1177H5.25316" stroke="#ABB7C2" stroke-width="1.0809" stroke-linecap="round" stroke-linejoin="round"/>
<path d="M6.3125 8.82324L7.06121 9.57195" stroke="#ABB7C2" stroke-width="1.0809" stroke-linecap="round" stroke-linejoin="round"/>
<path d="M19.0176 14.1177H20.0764" stroke="#ABB7C2" stroke-width="1.0809" stroke-linecap="round" stroke-linejoin="round"/>
<path d="M17.4307 9.572L18.1794 8.82324" stroke="#ABB7C2" stroke-width="1.0809" stroke-linecap="round" stroke-linejoin="round"/>
</svg>
