<svg width="24" height="24" viewBox="0 0 24 24" fill="none" xmlns="http://www.w3.org/2000/svg">
<path d="M20.1431 13.3571V4.30952C20.1431 3.31015 19.333 2.5 18.3336 2.5H5.66695C4.66757 2.5 3.85742 3.31015 3.85742 4.30953V18.7857C3.85742 19.7851 4.66757 20.5952 5.66695 20.5952H12.0003" stroke="#ABB7C2" stroke-width="0.904762" stroke-linecap="round"/>
<path d="M12.2266 6.03076H17.6551" stroke="#ABB7C2" stroke-width="0.904762" stroke-linecap="round" stroke-linejoin="round"/>
<path d="M12.2266 9.56152H17.6551" stroke="#ABB7C2" stroke-width="0.904762" stroke-linecap="round" stroke-linejoin="round"/>
<path d="M12 13.3569H12.9048" stroke="#ABB7C2" stroke-width="0.904762" stroke-linecap="round" stroke-linejoin="round"/>
<path d="M16.5243 21.4998C18.5231 21.4998 20.1434 19.8795 20.1434 17.8808C20.1434 15.882 18.5231 14.2617 16.5243 14.2617C14.5256 14.2617 12.9053 15.882 12.9053 17.8808C12.9053 19.8795 14.5256 21.4998 16.5243 21.4998Z" stroke="#ABB7C2" stroke-width="0.904762"/>
<path d="M16.0771 16.6548V18.4202H17.8867" stroke="#ABB7C2" stroke-width="0.904762" stroke-linecap="round" stroke-linejoin="round"/>
<path d="M6.79785 5.85405L8.18979 6.91328L10.4169 4.70654" stroke="#ABB7C2" stroke-width="0.904762" stroke-linecap="round" stroke-linejoin="round"/>
<path d="M6.79785 9.38481L8.18979 10.444L10.4169 8.2373" stroke="#ABB7C2" stroke-width="0.904762" stroke-linecap="round" stroke-linejoin="round"/>
<path d="M6.79785 12.9161L8.18979 13.9753L10.4169 11.7686" stroke="#ABB7C2" stroke-width="0.904762" stroke-linecap="round" stroke-linejoin="round"/>
</svg>
