<svg width="24" height="24" viewBox="0 0 24 24" fill="none" xmlns="http://www.w3.org/2000/svg">
<path fill-rule="evenodd" clip-rule="evenodd" d="M18.3336 2.5H5.66695C4.66757 2.5 3.85742 3.31015 3.85742 4.30953V18.7857C3.85742 19.7851 4.66757 20.5952 5.66695 20.5952H13.4898C12.845 19.8749 12.4529 18.9236 12.4529 17.8808C12.4529 15.6322 14.2757 13.8093 16.5243 13.8093C18.0998 13.8093 19.4662 14.7041 20.1431 16.0133V4.30952C20.1431 3.31015 19.333 2.5 18.3336 2.5ZM18.156 20.5952C19.0758 20.0412 19.691 19.0328 19.691 17.8808C19.691 16.1319 18.2732 14.7141 16.5243 14.7141C14.7754 14.7141 13.3577 16.1319 13.3577 17.8808C13.3577 19.0328 13.9728 20.0412 14.8926 20.5952H18.156ZM11.7742 6.03076C11.7742 5.78092 11.9767 5.57838 12.2266 5.57838H17.6551C17.905 5.57838 18.1075 5.78092 18.1075 6.03076C18.1075 6.2806 17.905 6.48314 17.6551 6.48314H12.2266C11.9767 6.48314 11.7742 6.2806 11.7742 6.03076ZM12.2266 9.10914C11.9767 9.10914 11.7742 9.31168 11.7742 9.56152C11.7742 9.81137 11.9767 10.0139 12.2266 10.0139H17.6551C17.905 10.0139 18.1075 9.81137 18.1075 9.56152C18.1075 9.31168 17.905 9.10914 17.6551 9.10914H12.2266ZM11.5476 13.3569C11.5476 13.1071 11.7502 12.9046 12 12.9046H12.9048C13.1546 12.9046 13.3571 13.1071 13.3571 13.3569C13.3571 13.6068 13.1546 13.8093 12.9048 13.8093H12C11.7502 13.8093 11.5476 13.6068 11.5476 13.3569ZM16.0771 16.2024C16.327 16.2024 16.5295 16.4049 16.5295 16.6548V17.9678H17.8867C18.1365 17.9678 18.3391 18.1703 18.3391 18.4202C18.3391 18.67 18.1365 18.8726 17.8867 18.8726H16.0771C15.8273 18.8726 15.6248 18.67 15.6248 18.4202V16.6548C15.6248 16.4049 15.8273 16.2024 16.0771 16.2024ZM10.7353 5.02789C10.9128 4.85204 10.9141 4.56561 10.7382 4.38813C10.5624 4.21066 10.276 4.20934 10.0985 4.3852L8.15076 6.31511L7.0718 5.49405C6.87298 5.34275 6.58915 5.38127 6.43785 5.5801C6.28655 5.77892 6.32508 6.06275 6.5239 6.21405L7.91584 7.27328C8.09532 7.40986 8.34799 7.39337 8.5082 7.23463L10.7353 5.02789ZM10.7382 7.9189C10.9141 8.09637 10.9128 8.3828 10.7353 8.55865L8.5082 10.7654C8.34799 10.9241 8.09532 10.9406 7.91584 10.804L6.5239 9.74481C6.32508 9.59351 6.28655 9.30968 6.43785 9.11086C6.58915 8.91203 6.87298 8.87351 7.0718 9.02481L8.15076 9.84587L10.0985 7.91596C10.276 7.7401 10.5624 7.74142 10.7382 7.9189ZM10.7353 12.0899C10.9128 11.9141 10.9141 11.6276 10.7382 11.4501C10.5624 11.2727 10.276 11.2714 10.0985 11.4472L8.15076 13.3771L7.0718 12.5561C6.87298 12.4048 6.58915 12.4433 6.43785 12.6421C6.28655 12.8409 6.32508 13.1248 6.5239 13.2761L7.91584 14.3353C8.09532 14.4719 8.34799 14.4554 8.5082 14.2966L10.7353 12.0899Z" fill="url(#paint0_linear_1072_484)"/>
<defs>
<linearGradient id="paint0_linear_1072_484" x1="12.0003" y1="20.5952" x2="12.0003" y2="2.5" gradientUnits="userSpaceOnUse">
<stop stop-color="#AB49FE"/>
<stop offset="1" stop-color="#5415F5"/>
</linearGradient>
</defs>
</svg>
