<svg width="24" height="24" viewBox="0 0 24 24" fill="none" xmlns="http://www.w3.org/2000/svg">
<path fill-rule="evenodd" clip-rule="evenodd" d="M1.54688 13.5884C1.54688 7.74058 6.28744 3 12.1352 3C17.9831 3 22.7236 7.74058 22.7236 13.5884C22.7236 16.1873 21.9245 18.7751 20.3875 20.6432C20.1957 20.8763 19.9048 21.0003 19.603 21.0003H6.08819C4.88077 21.0003 3.684 20.5194 3.07162 19.4788C2.06584 17.7698 1.54688 15.6827 1.54688 13.5884ZM10.5582 15.1767C10.5582 14.3111 11.2555 13.6084 12.119 13.5995L12.1352 13.5998L12.1516 13.5995C13.0152 13.6082 13.7127 14.311 13.7127 15.1767C13.7127 16.0478 13.0065 16.7539 12.1355 16.7539C11.2644 16.7539 10.5582 16.0478 10.5582 15.1767ZM9.47733 15.1767C9.47733 13.8939 10.386 12.8233 11.5948 12.5736V9.88281C11.5948 9.58433 11.8368 9.34236 12.1352 9.34236C12.4337 9.34236 12.6757 9.58433 12.6757 9.88281V12.5735C13.8847 12.8231 14.7936 13.8937 14.7936 15.1767C14.7936 16.6447 13.6035 17.8348 12.1355 17.8348C10.6674 17.8348 9.47733 16.6447 9.47733 15.1767ZM12.6757 5.64736C12.6757 5.34887 12.4337 5.10691 12.1352 5.10691C11.8368 5.10691 11.5948 5.34887 11.5948 5.64736V6.70619C11.5948 7.00468 11.8368 7.24664 12.1352 7.24664C12.4337 7.24664 12.6757 7.00468 12.6757 6.70619V5.64736ZM3.65378 14.1177C3.65378 13.8193 3.89575 13.5773 4.19423 13.5773H5.25305C5.55154 13.5773 5.7935 13.8193 5.7935 14.1177C5.7935 14.4162 5.55154 14.6582 5.25305 14.6582H4.19423C3.89575 14.6582 3.65378 14.4162 3.65378 14.1177ZM6.69385 8.44139C6.48279 8.23034 6.1406 8.23034 5.92954 8.44139C5.71848 8.65245 5.71848 8.99465 5.92954 9.2057L6.67824 9.95441C6.8893 10.1655 7.23149 10.1655 7.44255 9.95441C7.65361 9.74335 7.65361 9.40116 7.44255 9.1901L6.69385 8.44139ZM18.4771 14.1177C18.4771 13.8193 18.719 13.5773 19.0175 13.5773H20.0764C20.3748 13.5773 20.6168 13.8193 20.6168 14.1177C20.6168 14.4162 20.3748 14.6582 20.0764 14.6582H19.0175C18.719 14.6582 18.4771 14.4162 18.4771 14.1177ZM18.5608 9.20569C18.7719 8.99462 18.7719 8.65243 18.5608 8.44138C18.3497 8.23033 18.0075 8.23034 17.7965 8.44141L17.0478 9.19017C16.8367 9.40123 16.8367 9.74342 17.0478 9.95448C17.2589 10.1655 17.6011 10.1655 17.8121 9.95445L18.5608 9.20569Z" fill="url(#paint0_linear_1072_486)"/>
<defs>
<linearGradient id="paint0_linear_1072_486" x1="12.1353" y1="3" x2="12.1353" y2="21.0003" gradientUnits="userSpaceOnUse">
<stop stop-color="#5717F5"/>
<stop offset="1" stop-color="#A747FE"/>
</linearGradient>
</defs>
</svg>
